<?xml version="1.0" encoding="utf-8"?>
<!-- Generator: Adobe Illustrator 23.0.0, SVG Export Plug-In . SVG Version: 6.00 Build 0)  -->
<svg version="1.1" id="Capa_1" xmlns="http://www.w3.org/2000/svg" xmlns:xlink="http://www.w3.org/1999/xlink" x="0px" y="0px"
	 viewBox="0 0 480 480" style="enable-background:new 0 0 480 480;" xml:space="preserve">
<style type="text/css">
	.st0{fill:#FFFFFF;stroke:#FFFFFF;stroke-width:0.25;stroke-miterlimit:10;}
</style>
<g>
	<path class="st0" d="M298.3,88.8H174.1V152h124.3L298.3,88.8L298.3,88.8z M278.3,132h-84.3v-23.2h84.3V132z"/>
	<path class="st0" d="M444.9,385.9c-4.4-69-11.4-110-22.8-133.1c-10.8-21.9-25.7-28.1-41.1-29.6l-5.1-100
		c-0.6-11.3-6.3-21.7-15.2-28.6l1.3-14.7c0.9-10-2.2-19.5-8.8-26.7c-6.6-7.2-15.7-11.2-25.8-11.2h-29.2v-5
		c0-20.4-16.6-37.1-37.1-37.1h-50.1c-20.4,0-37.1,16.6-37.1,37.1v5h-21.6c-10,0-19.2,4-25.8,11.2S117,70,117.9,80l1.3,14.7
		c-9,6.9-14.7,17.3-15.2,28.6l-5.1,100c-15.4,1.5-30.3,7.7-41.1,29.6c-11.3,23.1-18.4,64.1-22.8,133.1c-0.8,12.4,1.8,21.7,7.9,28.2
		c9.5,10.1,24.8,11.5,45.5,11.7l-0.9,16.7c-0.5,10,2.9,19.4,9.7,26.5c6.8,7.1,16,11,26,11h233.2c10,0,19.2-3.9,26-11
		c6.8-7.1,10.2-16.5,9.7-26.5l-0.9-16.7c20.8-0.2,36.1-1.6,45.5-11.7C443.1,407.6,445.7,398.4,444.9,385.9z M194.1,37.1
		c0-9.4,7.7-17.1,17.1-17.1h50.1c9.4,0,17.1,7.7,17.1,17.1v5h-84.3L194.1,37.1L194.1,37.1z M141.5,66.8c2.7-3,6.6-4.7,11-4.7h175.1
		c4.4,0,8.3,1.7,11,4.7c2.7,3,4,7,3.6,11.4l-10.3,111.5c-0.9,9.7-9.9,17.9-19.6,17.9H167.7c-9.7,0-18.7-8.2-19.6-17.9L137.8,78.1v0
		C137.4,73.8,138.7,69.8,141.5,66.8z M172.5,368.4c-1.8,0-3.8-2.3-3.8-5.6v-38.1c0-3.3,2-5.6,3.8-5.6h23.1c1.8,0,3.8,2.3,3.8,5.6
		v38.1c0,3.3-2,5.6-3.8,5.6H172.5z M188.4,299.1h-8.7v-71.6h8.7V299.1z M179.7,388.4h8.7V460h-8.7V388.4z M208.4,384.4
		c6.6-4.5,11-12.5,11-21.6v-38.1c0-9.1-4.4-17-11-21.6v-75.6H264v75.6c-6.6,4.5-11,12.5-11,21.6v38.1c0,9.1,4.4,17,11,21.6V460
		h-55.5L208.4,384.4L208.4,384.4z M276.8,368.4c-1.8,0-3.8-2.3-3.8-5.6v-38.1c0-3.3,2-5.6,3.8-5.6h23.1c1.8,0,3.8,2.3,3.8,5.6v38.1
		c0,3.3-2,5.6-3.8,5.6H276.8z M284,227.5h8.7v71.6H284V227.5z M284,388.4h8.7V460H284V388.4z M57.6,400.4c-2.1-2.3-3-6.7-2.6-13.2
		c7.8-122.5,23.7-141.1,42.8-143.9l-8.3,162.5C74.3,405.7,61.9,404.9,57.6,400.4z M111.9,455.2c-3-3.1-4.5-7.3-4.2-11.7l15.6-305.2
		l4.9,53.2c1.6,17.2,15,31.6,31.5,35.2v76.5c-6.6,4.5-11,12.5-11,21.6v38.1c0,9.1,4.4,17,11,21.6V460h-36.3
		C119,460,114.9,458.3,111.9,455.2z M368.1,455.2c-3,3.1-7,4.8-11.5,4.8h-43.9v-75.6c6.6-4.5,11-12.5,11-21.6v-38.1
		c0-9.1-4.4-17-11-21.6v-75.6c19.8-0.2,37.3-16.3,39.2-36l4.9-53.1l15.6,305.2C372.5,447.9,371,452.1,368.1,455.2z M422.4,400.4
		c-4.2,4.5-16.6,5.2-32,5.4l-8.3-162.5c19.1,2.8,35,21.4,42.8,143.9C425.3,393.7,424.5,398.2,422.4,400.4z"/>
</g>
</svg>
