<?xml version="1.0" encoding="utf-8"?>
<!-- Generator: Adobe Illustrator 23.0.0, SVG Export Plug-In . SVG Version: 6.00 Build 0)  -->
<svg version="1.1" id="Layer_1" xmlns="http://www.w3.org/2000/svg" xmlns:xlink="http://www.w3.org/1999/xlink" x="0px" y="0px"
	 viewBox="0 0 512 512" style="enable-background:new 0 0 512 512;" xml:space="preserve">
<style type="text/css">
	.st0{fill:#FFFFFF;}
</style>
<g>
	<g>
		<g>
			<path class="st0" d="M369.5,48.2c-7.7,0-14.9,2.5-20.8,6.6V36c0-19.8-16.1-36-36-36c-11.5,0-21.8,5.4-28.4,13.9
				C277.8,5.4,267.5,0,256,0c-19.4,0-35.2,15.4-36,34.5c-5.9-4.2-13.1-6.6-20.8-6.6c-19.8,0-36,16.1-36,36V188
				c-5.9-4.2-13-6.6-20.8-6.6c-19.8,0-36,16.1-36,36v67.9c0,37.1,13.4,72,37.8,99.4c-4.5,3.6-7.9,8.4-9.9,13.7c0,0,0,0,0,0
				c-0.1,0.4-0.3,0.7-0.4,1.1c-0.1,0.2-0.1,0.3-0.2,0.5c-0.1,0.3-0.2,0.6-0.3,0.9c-0.1,0.2-0.1,0.5-0.2,0.7
				c-0.1,0.3-0.1,0.6-0.2,0.8c-0.1,0.3-0.1,0.6-0.2,0.9c0,0.3-0.1,0.5-0.1,0.8c-0.1,0.3-0.1,0.6-0.1,1c0,0.2-0.1,0.5-0.1,0.7
				c0,0.4-0.1,0.8-0.1,1.1c0,0.2,0,0.4,0,0.6c0,0.6-0.1,1.1-0.1,1.7v71.2c0,17.4,14.1,31.5,31.5,31.5h183.8
				c17.4,0,31.5-14.1,31.5-31.5v-71.2c0-0.6,0-1.2,0-1.7c0-0.2,0-0.4,0-0.6c0-0.4-0.1-0.8-0.1-1.1c0-0.2-0.1-0.5-0.1-0.7
				c0-0.3-0.1-0.7-0.1-1c0-0.3-0.1-0.5-0.1-0.8c-0.1-0.3-0.1-0.6-0.2-0.9c-0.1-0.3-0.1-0.6-0.2-0.8c-0.1-0.2-0.1-0.5-0.2-0.7
				c-0.1-0.3-0.2-0.6-0.3-0.9c0-0.2-0.1-0.3-0.2-0.5c-0.1-0.4-0.2-0.8-0.4-1.1c0,0,0,0,0,0c-2-5.4-5.4-10.2-9.9-13.7
				c24.4-27.4,37.8-62.3,37.8-99.4V84.2h0C405.5,64.3,389.3,48.2,369.5,48.2z M390.3,285.3c0,34.9-13.2,67.7-37.3,92.8
				c-1.7-0.3-3.3-0.4-5.1-0.4h-40.3v15.2h40.3c1.6,0,3.2,0.2,4.7,0.7l0.4,0.1c0,0,0,0,0,0c0.7,0.2,1.3,0.5,1.9,0.8
				c0.2,0.1,0.4,0.2,0.6,0.3c0.2,0.1,0.4,0.2,0.5,0.3c0.3,0.2,0.5,0.3,0.8,0.5c0.1,0.1,0.3,0.2,0.4,0.3c0.3,0.2,0.6,0.5,1,0.7
				c0.1,0,0.1,0.1,0.2,0.1c1.2,1,2.2,2.1,3.1,3.4c0,0,0.1,0.1,0.1,0.1c0.3,0.4,0.5,0.8,0.7,1.2c0,0.1,0.1,0.1,0.1,0.2
				c0.5,0.9,0.9,1.8,1.2,2.8c0,0.1,0.1,0.2,0.1,0.3c0.1,0.4,0.2,0.7,0.3,1.1c0,0.2,0.1,0.3,0.1,0.5c0.1,0.3,0.1,0.7,0.2,1.1
				c0,0.2,0,0.3,0.1,0.5c0,0.5,0.1,1,0.1,1.5v71.2c0,9-7.3,16.3-16.3,16.3H164.1c-9,0-16.3-7.3-16.3-16.3v-71.2c0-0.5,0-1,0.1-1.5
				c0-0.2,0-0.3,0.1-0.5c0-0.4,0.1-0.7,0.2-1.1c0-0.2,0.1-0.3,0.1-0.5c0.1-0.4,0.2-0.8,0.3-1.1c0-0.1,0.1-0.2,0.1-0.3
				c0.3-1,0.7-1.9,1.2-2.8c0-0.1,0.1-0.1,0.1-0.2c0.2-0.4,0.5-0.8,0.7-1.2c0,0,0.1-0.1,0.1-0.1c0.9-1.3,1.9-2.4,3.1-3.4
				c0.1,0,0.1-0.1,0.2-0.1c0.3-0.2,0.6-0.5,0.9-0.7c0.1-0.1,0.2-0.2,0.4-0.3c0.3-0.2,0.5-0.3,0.8-0.5c0.2-0.1,0.3-0.2,0.5-0.3
				c0.2-0.1,0.4-0.2,0.6-0.3c0.6-0.3,1.2-0.6,1.9-0.8c0,0,0,0,0,0l0.4-0.1c1.5-0.5,3.1-0.7,4.7-0.7h123.3v-15.2H164.1
				c-1.7,0-3.4,0.1-5.1,0.4c-24.1-25.1-37.3-57.9-37.3-92.8v-67.9c0-11.5,9.3-20.8,20.8-20.8s20.8,9.3,20.8,20.8v60h15.2v-60V63.9
				c0-11.5,9.3-20.8,20.8-20.8S220,52.4,220,63.9v126.1h15.2V63.9V36c0-11.5,9.3-20.8,20.8-20.8s20.8,9.3,20.8,20.8v154H292V36
				c0-11.5,9.3-20.8,20.8-20.8s20.8,9.3,20.8,20.8v27.9v20.3v50.2h15.2V84.2c0-11.5,9.3-20.8,20.8-20.8s20.8,9.3,20.8,20.8
				L390.3,285.3L390.3,285.3z"/>
			<path class="st0" d="M359.9,285.3c0,20.9-6.1,41-17.8,58.1l12.6,8.5c13.3-19.6,20.4-42.7,20.4-66.7v-38.4h-15.2L359.9,285.3
				L359.9,285.3z"/>
			<rect x="333.5" y="154.6" class="st0" width="15.2" height="35.3"/>
			<rect x="162.5" y="408.1" class="st0" width="104.6" height="15.2"/>
		</g>
	</g>
</g>
</svg>
