<svg width="10" height="12" viewBox="0 0 10 12" fill="none" xmlns="http://www.w3.org/2000/svg">
<path fill-rule="evenodd" clip-rule="evenodd" d="M2.85176 0.328446L2.50068 0.656891H1.25033H0V1.32551V1.99413H5H10V1.32551V0.656891H8.74967H7.49932L7.14824 0.328446L6.79716 0H5H3.20284L2.85176 0.328446ZM0.709196 6.79765L0.71608 10.9208L0.774699 11.0733C0.945025 11.5163 1.25877 11.8051 1.73367 11.9561C1.8658 11.9981 2.00897 12 5 12C7.99103 12 8.1342 11.9981 8.26633 11.9561C8.74123 11.8051 9.05497 11.5163 9.2253 11.0733L9.28392 10.9208L9.2908 6.79765L9.29769 2.67449H5H0.702312L0.709196 6.79765Z" fill="white"/>
</svg>
