<svg width="152" height="146" viewBox="0 0 152 146" fill="none" xmlns="http://www.w3.org/2000/svg">
<path fill-rule="evenodd" clip-rule="evenodd" d="M3.93946 0.700459C-1.03441 3.03434 -1.37002 9.7669 3.3413 12.7041L4.79423 13.6098L13.0295 13.7017C20.5864 13.7861 21.3057 13.8391 21.7601 14.3452C22.1432 14.772 23.4637 23.2299 27.5864 51.6647C31.5014 78.6677 33.1174 89.0687 33.6716 90.827C35.5905 96.9173 40.9775 101.909 47.2371 103.396C50.0162 104.056 123.195 104.056 126.316 103.396C132.731 102.039 138.439 96.7027 140.325 90.2997C140.976 88.0939 152.007 32.3152 152 31.2725C151.992 30.1744 151.017 27.9309 150.132 26.9741C149.775 26.5877 148.947 25.9816 148.294 25.6273L147.106 24.9829L92.3094 24.8332L37.5127 24.6836L36.8528 20.1942C35.788 12.949 35.3051 10.7447 34.3298 8.67718C33.118 6.10836 29.8834 2.82812 27.4156 1.66627C24.3422 0.219198 22.5472 0.00251112 13.6042 0.000116791C5.65464 -0.00197825 5.39655 0.0165776 3.93946 0.700459ZM52.3767 110.498C45.3565 111.394 39.1189 117.085 37.4881 124.082C36.8376 126.872 37.0562 131.417 37.9662 134.032C40.3877 140.991 46.9781 145.747 54.1994 145.747C58.9954 145.747 62.759 144.126 66.3328 140.522C70.1246 136.698 71.5193 133.369 71.5193 128.144C71.5193 124.766 70.947 122.321 69.5552 119.75C68.1858 117.221 67.0325 115.816 65.0203 114.226C61.2125 111.217 56.8409 109.928 52.3767 110.498ZM113.099 110.466C106.156 111.221 100.153 116.34 98.1484 123.215C96.9224 127.421 97.3575 132.015 99.3759 136.17C100.748 138.994 104.088 142.486 106.769 143.897C113.642 147.514 121.742 146.399 127.351 141.063C129.595 138.927 130.945 136.81 132.031 133.726C133.133 130.599 133.124 126.279 132.009 122.851C129.331 114.621 121.579 109.543 113.099 110.466Z" fill="url(#paint0_linear_8_15)" fill-opacity="0.15"/>
<defs>
<linearGradient id="paint0_linear_8_15" x1="76" y1="0" x2="76" y2="146" gradientUnits="userSpaceOnUse">
<stop stop-color="white" stop-opacity="0"/>
<stop offset="1" stop-color="white" stop-opacity="0.41"/>
</linearGradient>
</defs>
</svg>
