<svg width="17" height="17" viewBox="0 0 17 17" fill="none" xmlns="http://www.w3.org/2000/svg">
<path fill-rule="evenodd" clip-rule="evenodd" d="M10.8571 0.0192407C10.8297 0.0288654 8.38338 2.45833 5.42081 5.41804C-0.22821 11.0615 -0.0464812 10.8709 0.0180899 11.0868C0.0448479 11.1763 5.67236 16.8247 5.83792 16.9282C6.09086 17.0863 5.65822 17.49 11.5783 11.5718C17.2279 5.92403 17.0465 6.11443 16.9819 5.89858C16.9572 5.81597 11.428 0.255011 11.209 0.0925208C11.0875 0.00234779 10.9728 -0.0215479 10.8571 0.0192407ZM14.7655 5.78876C14.8715 5.89473 14.8809 5.91885 14.8642 6.04331C14.8471 6.17029 14.7868 6.23969 14.0716 6.95516C13.5692 7.45777 13.2606 7.74176 13.1923 7.7643C12.9902 7.83097 12.7494 7.6496 12.7494 7.43065C12.7494 7.29458 12.8528 7.17308 13.6034 6.4267C14.3576 5.67688 14.3638 5.67167 14.5056 5.67167C14.6247 5.67167 14.6678 5.69108 14.7655 5.78876ZM8.3219 6.47194C9.03035 6.69055 9.70913 7.21636 10.1651 7.89967C10.6147 8.5735 10.7487 9.36544 10.5023 9.89161C10.3714 10.1711 10.1803 10.3625 9.89936 10.4956C9.68689 10.5962 9.66289 10.6001 9.26357 10.5975C8.88933 10.5951 8.82217 10.5852 8.57935 10.496C7.44297 10.079 6.49585 8.94451 6.39101 7.87482C6.3194 7.14437 6.73415 6.54512 7.4103 6.40198C7.62041 6.35751 8.06053 6.39129 8.3219 6.47194ZM1.04694 8.20952C0.590465 8.37862 0.176447 8.5495 0.126915 8.5893C-0.0158389 8.70396 -0.0221799 8.84093 0.0994927 9.18098C0.157258 9.34244 0.21821 9.4963 0.234909 9.52292C0.258513 9.56056 0.451928 9.38489 1.10421 8.7333C1.56564 8.27241 1.92823 7.89682 1.91004 7.89868C1.89181 7.90054 1.50342 8.04043 1.04694 8.20952ZM14.4086 9.73802C13.6514 10.4951 13.0496 11.1146 13.0712 11.1146C13.0929 11.1146 13.4191 11.0011 13.7961 10.8625C14.5388 10.5895 14.6282 10.5772 14.7705 10.7287C14.9281 10.8964 14.8791 11.1883 14.6778 11.2813C14.4657 11.3794 12.8058 11.9775 12.7457 11.9775C12.6537 11.9775 12.5465 11.918 12.4672 11.823L12.4008 11.7434L10.9416 13.2033C10.139 14.0062 9.48909 14.6687 9.49742 14.6756C9.50888 14.685 15.8361 12.3656 16.7112 12.0312C16.8792 11.967 16.9985 11.8259 16.9987 11.6912C16.9988 11.6185 15.8505 8.42883 15.8086 8.38559C15.7958 8.37231 15.1658 8.98089 14.4086 9.73802ZM4.03368 9.2368C4.15044 9.28559 4.2506 9.43235 4.2506 9.55471C4.2506 9.69079 4.14725 9.81229 3.39657 10.5587C2.68423 11.2669 2.62965 11.3137 2.51588 11.3137C2.34713 11.3137 2.24156 11.2577 2.17413 11.1326C2.05698 10.9151 2.08835 10.8693 2.93096 10.0287C3.60725 9.35412 3.78386 9.20073 3.89478 9.19173C3.90905 9.1906 3.97157 9.21088 4.03368 9.2368ZM1.86821 14.0352C1.94526 14.2667 2.86762 16.7822 2.89245 16.8285C2.93096 16.9005 3.0923 16.9889 3.18503 16.9889C3.25149 16.9889 4.34532 16.6 4.39093 16.5602C4.40424 16.5486 3.83831 15.9645 3.13337 15.2622C2.4284 14.56 1.85908 14.0078 1.86821 14.0352Z" fill="white"/>
</svg>
