<svg width="15" height="15" viewBox="0 0 15 15" fill="none" xmlns="http://www.w3.org/2000/svg">
<path fill-rule="evenodd" clip-rule="evenodd" d="M9.03511 0.0331067C8.96724 0.055288 8.84836 0.120482 8.77092 0.17796C8.69348 0.235467 7.59323 1.31968 6.32589 2.58736L4.02167 4.89225H6.60702H9.19239L10.2909 3.7267C10.8951 3.08568 11.481 2.46434 11.593 2.34595L11.7965 2.13074L10.8151 1.14754C10.1059 0.437123 9.79294 0.143368 9.68689 0.0887067C9.5095 -0.00271785 9.22027 -0.0273931 9.03511 0.0331067ZM11.6683 3.54723C11.2566 3.98428 10.8031 4.4657 10.6604 4.61707L10.401 4.89225L11.086 4.88984L11.771 4.88744L12.4315 4.1833C12.7948 3.79604 13.0953 3.47018 13.0994 3.45918C13.1035 3.44821 12.9516 3.28472 12.7619 3.09589L12.4168 2.75258L11.6683 3.54723ZM13.3596 4.47477L12.9814 4.87758L13.6971 4.89694C14.0908 4.90762 14.4583 4.93051 14.5137 4.94779C14.5691 4.9651 14.6182 4.97558 14.6227 4.97103C14.6273 4.96651 14.43 4.76236 14.1844 4.5174L13.7378 4.07198L13.3596 4.47477ZM0.694139 5.80382C0.433268 5.85546 0.185665 6.06091 0.06182 6.32843L0 6.46196V10.3936V14.3252L0.0766438 14.4885C0.16729 14.6817 0.322192 14.8407 0.509971 14.9331L0.645793 15H7.5H14.3542L14.4892 14.9335C14.6731 14.843 14.8314 14.6799 14.9233 14.4865L15 14.3252V10.3936V6.46196L14.9184 6.29586C14.8244 6.10462 14.6553 5.93985 14.4605 5.84983L14.3249 5.78713L7.57339 5.78282C3.86008 5.78044 0.764413 5.78989 0.694139 5.80382ZM4.05757 7.5778C4.22974 7.64969 4.3397 7.74933 4.43325 7.91812L4.52055 8.07568V8.89721V9.71874L4.43325 9.8763C4.38522 9.96297 4.30523 10.0649 4.25554 10.1028C4.05203 10.2579 4.02282 10.2615 2.97097 10.2615H1.99195L1.83276 10.1808C1.65159 10.089 1.50068 9.91027 1.45209 9.72995C1.43172 9.65431 1.42347 9.32892 1.42929 8.82896C1.43792 8.08422 1.44153 8.04041 1.50396 7.92367C1.58031 7.78092 1.75629 7.62407 1.89737 7.57305C1.96697 7.54787 2.28437 7.5367 2.97305 7.53511C3.78749 7.53326 3.96793 7.54036 4.05757 7.5778ZM2.30431 8.89721V9.38132H2.97945H3.6546V8.89721V8.41309H2.97945H2.30431V8.89721ZM3.53718 12.6674V13.1075H2.45108H1.36497V12.6674V12.2273H2.45108H3.53718V12.6674ZM6.91292 12.6674V13.1075H5.82681H4.7407V12.6674V12.2273H5.82681H6.91292V12.6674ZM10.2593 12.6674V13.1075H9.17319H8.08708V12.6674V12.2273H9.17319H10.2593V12.6674ZM13.635 12.6674V13.1075H12.5489H11.4628V12.6674V12.2273H12.5489H13.635V12.6674Z" fill="#AED74A"/>
</svg>
