<svg width="250" height="344" viewBox="0 0 250 344" fill="none" xmlns="http://www.w3.org/2000/svg">
<path d="M0 4C0 1.79086 1.79086 0 4 0H122.82C124.179 0 125.445 0.690175 126.181 1.8325L148.319 36.1675C149.055 37.3098 150.321 38 151.68 38H246C248.209 38 250 39.7909 250 42V340C250 342.209 248.209 344 246 344H3.99999C1.79085 344 0 342.209 0 340V4Z" fill="url(#paint0_linear_0_1)" fill-opacity="0.15"/>
<path d="M249.5 42V340C249.5 341.933 247.933 343.5 246 343.5H3.99999C2.067 343.5 0.5 341.933 0.5 340V4C0.5 2.06701 2.067 0.5 4 0.5H122.82C124.009 0.5 125.117 1.1039 125.761 2.10344L147.898 36.4384C148.727 37.7236 150.151 38.5 151.68 38.5H246C247.933 38.5 249.5 40.067 249.5 42Z" stroke="white" stroke-opacity="0.25"/>
<path d="M134.253 0.5H248C248.828 0.5 249.5 1.17157 249.5 2V31.5C249.5 32.3284 248.828 33 248 33H154.066C153.566 33 153.099 32.7512 152.821 32.3363L133.007 2.83633C132.338 1.83985 133.052 0.5 134.253 0.5Z" fill="#AED74A" fill-opacity="0.25" stroke="#AED74A"/>
<defs>
<linearGradient id="paint0_linear_0_1" x1="125" y1="0" x2="125" y2="344" gradientUnits="userSpaceOnUse">
<stop stop-color="white" stop-opacity="0"/>
<stop offset="1" stop-color="white" stop-opacity="0.41"/>
</linearGradient>
</defs>
</svg>
